<svg xmlns="http://www.w3.org/2000/svg" id="Layer_1" viewBox="0 0 80 80"><style>.st0{fill:url(#SVGID_1_)}.st11{fill:none;stroke:#ffdb70;stroke-width:2;stroke-miterlimit:10}</style><linearGradient id="SVGID_1_" x1="8771.954" x2="8771.954" y1="756.291" y2="741.659" gradientTransform="rotate(180 4405.956 404)" gradientUnits="userSpaceOnUse"><stop offset="0" stop-color="#F7945D"/><stop offset=".183" stop-color="#F7985E"/><stop offset=".394" stop-color="#F9A161"/><stop offset=".618" stop-color="#FAB164"/><stop offset=".851" stop-color="#FFCA6D"/><stop offset="1" stop-color="#FFDB71"/></linearGradient><path d="M32.628 66.367h14.658V51.71H32.628v14.657z" class="st0"/><linearGradient id="SVGID_2_" x1="13.267" x2="66.713" y1="734.573" y2="788.018" gradientTransform="matrix(1 0 0 -1 0 794)" gradientUnits="userSpaceOnUse"><stop offset="0" stop-color="#F7945D"/><stop offset="1" stop-color="#FFDB71"/></linearGradient><path fill="#FFF" stroke="url(#SVGID_2_)" stroke-miterlimit="10" stroke-width="3" d="M71.657 51.796H8.343c-.78 0-1.388-.607-1.388-1.388V15.02c0-.78.607-1.387 1.388-1.387h63.315c.78 0 1.388.607 1.388 1.388v35.3c0 .782-.608 1.476-1.39 1.476z"/><linearGradient id="SVGID_3_" x1="37.584" x2="42.242" y1="721.235" y2="734.032" gradientTransform="matrix(1 0 0 -1 0 794)" gradientUnits="userSpaceOnUse"><stop offset="0" stop-color="#F7945D"/><stop offset=".03" stop-color="#F7995E"/><stop offset=".21" stop-color="#F9B064"/><stop offset=".395" stop-color="#FEC46C"/><stop offset=".585" stop-color="#FFD16F"/><stop offset=".783" stop-color="#FFD86F"/><stop offset="1" stop-color="#FFDB71"/></linearGradient><path fill="none" stroke="url(#SVGID_3_)" stroke-miterlimit="10" stroke-width="3" d="M24.128 66.367h31.57"/><path d="M14.5 43.903l6.246-7.286 6.245 5.29L37.66 29.42l5.81 6.938 11.622-13.01 9.02 16.74" class="st11"/><linearGradient id="SVGID_4_" x1="54.181" x2="56.346" y1="769.395" y2="771.56" gradientTransform="matrix(1 0 0 -1 0 794)" gradientUnits="userSpaceOnUse"><stop offset="0" stop-color="#F7945D"/><stop offset="1" stop-color="#FFDB71"/></linearGradient><circle cx="55.265" cy="23.521" r="1.561" fill="url(#SVGID_4_)" stroke="#FFF" stroke-miterlimit="10" stroke-width=".5"/><linearGradient id="SVGID_5_" x1="63.281" x2="65.447" y1="752.563" y2="754.727" gradientTransform="matrix(1 0 0 -1 0 794)" gradientUnits="userSpaceOnUse"><stop offset="0" stop-color="#F7945D"/><stop offset="1" stop-color="#FFDB71"/></linearGradient><circle cx="64.372" cy="40.347" r="1.561" fill="url(#SVGID_5_)" stroke="#FFF" stroke-miterlimit="10" stroke-width=".5"/><linearGradient id="SVGID_6_" x1="42.37" x2="44.535" y1="756.63" y2="758.796" gradientTransform="matrix(1 0 0 -1 0 794)" gradientUnits="userSpaceOnUse"><stop offset="0" stop-color="#F7945D"/><stop offset="1" stop-color="#FFDB71"/></linearGradient><circle cx="43.469" cy="36.271" r="1.561" fill="url(#SVGID_6_)" stroke="#FFF" stroke-miterlimit="10" stroke-width=".5"/><linearGradient id="SVGID_7_" x1="36.666" x2="38.832" y1="763.329" y2="765.495" gradientTransform="matrix(1 0 0 -1 0 794)" gradientUnits="userSpaceOnUse"><stop offset="0" stop-color="#F7945D"/><stop offset="1" stop-color="#FFDB71"/></linearGradient><circle cx="37.745" cy="29.592" r="1.561" fill="url(#SVGID_7_)" stroke="#FFF" stroke-miterlimit="10" stroke-width=".5"/><linearGradient id="SVGID_8_" x1="25.823" x2="27.987" y1="751.357" y2="753.523" gradientTransform="matrix(1 0 0 -1 0 794)" gradientUnits="userSpaceOnUse"><stop offset="0" stop-color="#F7945D"/><stop offset="1" stop-color="#FFDB71"/></linearGradient><circle cx="26.903" cy="41.561" r="1.561" fill="url(#SVGID_8_)" stroke="#FFF" stroke-miterlimit="10" stroke-width=".5"/><linearGradient id="SVGID_9_" x1="13.245" x2="15.411" y1="748.929" y2="751.094" gradientTransform="matrix(1 0 0 -1 0 794)" gradientUnits="userSpaceOnUse"><stop offset="0" stop-color="#F7945D"/><stop offset="1" stop-color="#FFDB71"/></linearGradient><circle cx="14.327" cy="43.99" r="1.561" fill="url(#SVGID_9_)" stroke="#FFF" stroke-miterlimit="10" stroke-width=".5"/></svg>