<svg xmlns="http://www.w3.org/2000/svg" xmlns:xlink="http://www.w3.org/1999/xlink" id="Layer_1" x="0" y="0" enable-background="new 0 0 439.4 207.4" version="1.1" viewBox="0 0 439.4 207.4" xml:space="preserve"><g><radialGradient id="SVGID_1_" cx="344.656" cy="115.371" r="80.85" fx="342.677" fy="119.53" gradientUnits="userSpaceOnUse"><stop offset="0" style="stop-color:#fff"/><stop offset=".19" style="stop-color:#fce800"/><stop offset=".859" style="stop-color:#ec8f27"/></radialGradient><polygon fill="url(#SVGID_1_)" fill-rule="evenodd" points="338 63.6 347.6 30 349 30.2 350 65.4 368 35.6 369.6 36.4 361.2 70.2 386.7 46 388 47.2 370.8 77.8 401.8 61.4 402.8 62.6 378.2 87.8 412.4 80 413.2 81.4 382.8 99.2 418 100.5 418 102 384 111.4 417.8 121.4 417.8 122.8 382.6 123.4 412.4 142 411.6 143.6 377.7 135 401.6 160.4 400.8 161.8 370.4 144.4 386.7 175.2 385.2 176.4 360.2 151.8 368.4 185.6 366.8 186.6 349 156.4 348.4 191.2 346.6 191.6 337 158 327 191.6 325.2 191.2 325.2 156.4 324.2 156 304.8 185.2 313.2 151.4 287.6 175.4 286.2 174.2 303.6 143.8 272.4 160 271.4 158.8 296 134 261.6 141.6 261.2 140.2 291.6 122.4 256.8 121 256.2 119.6 289.9 110 256.6 100.2 256.8 98.6 291.8 98 262.2 80 262.4 78.4 296.7 87 272.4 61.4 273.6 60 304.4 76.8 287.6 46.4 288.6 45.2 314.4 69.8 306 35.6 305.7 35 325.9 65.4 326.4 30 328.4 30" clip-rule="evenodd"/><g><path fill="#F68B1F" d="M432.9,176.9c0-33.6-27.2-60.8-60.8-60.8c-13.6,0-26.1,4.4-36.2,11.9c1.3-6.4,1.9-13,1.9-19.7 c0-55.9-45.3-101.2-101.3-101.2c-44.5,0-82.3,28.7-95.9,68.7c-7.6-5.7-17.1-9.1-27.3-9.1c-25.2,0-45.6,20.4-45.6,45.6 c0,3.9,0.5,7.7,1.4,11.3c-34.9,1-62.9,29.6-62.9,64.8c0,4.1,0.4,8.1,1.1,12h420.7C431.3,193.1,432.9,185.1,432.9,176.9z"/></g><linearGradient id="SVGID_2_" x1="236.733" x2="236.733" y1="87.311" y2="8.01" gradientUnits="userSpaceOnUse"><stop offset="0" style="stop-color:#f68b1f"/><stop offset="1" style="stop-color:#fff"/></linearGradient><path fill="url(#SVGID_2_)" fill-rule="evenodd" d="M326,108.4c0,49.3-40.1,80.5-89.4,80.5 c-49.3,0-89.2-31.2-89.2-80.5s40-89.3,89.3-89.3C286.1,19.1,326,59.1,326,108.4" clip-rule="evenodd"/><path fill="#F68B1F" fill-rule="evenodd" d="M312.4,109c0,30.2-34.1,54.6-76.2,54.6 c-42.1,0-76.2-24.5-76.2-54.6c0-30.2,34.1-54.6,76.2-54.6C278.2,54.4,312.4,78.8,312.4,109" clip-rule="evenodd"/><linearGradient id="SVGID_3_" x1="94.041" x2="119.259" y1="61.513" y2="86.731" gradientTransform="matrix(0.9642 0.2653 -0.2653 0.9642 21.1801 -3.7698)" gradientUnits="userSpaceOnUse"><stop offset="0" style="stop-color:#fff"/><stop offset=".048" style="stop-color:#fef6ed"/><stop offset=".257" style="stop-color:#fbd0a5"/><stop offset=".444" style="stop-color:#f9b26b"/><stop offset=".603" style="stop-color:#f79d42"/><stop offset=".728" style="stop-color:#f69028"/><stop offset=".803" style="stop-color:#f68b1f"/></linearGradient><circle cx="113.7" cy="112.5" r="33.7" fill="url(#SVGID_3_)"/><path fill="#F68B1F" fill-rule="evenodd" d="M141.1,99.6c5.7,9.9-1.4,24.7-16,33.1c-14.5,8.4-31,7.2-36.7-2.7 c-5.7-9.9,1.4-24.7,16-33.1C119,88.5,135.4,89.7,141.1,99.6" clip-rule="evenodd"/><g><linearGradient id="SVGID_4_" x1="11.246" x2="106.624" y1="88.281" y2="235.133" gradientUnits="userSpaceOnUse"><stop offset="0" style="stop-color:#fff"/><stop offset=".048" style="stop-color:#fef6ed"/><stop offset=".257" style="stop-color:#fbd0a5"/><stop offset=".444" style="stop-color:#f9b26b"/><stop offset=".603" style="stop-color:#f79d42"/><stop offset=".728" style="stop-color:#f69028"/><stop offset=".803" style="stop-color:#f68b1f"/></linearGradient><path fill="url(#SVGID_4_)" d="M124.3,188.2c0-29.4-23.8-53.2-53.2-53.2c-29.4,0-53.2,23.8-53.2,53.2c0,0.1,0,0.2,0,0.3h106.4 C124.3,188.4,124.3,188.3,124.3,188.2z"/></g><g><linearGradient id="SVGID_5_" x1="389.936" x2="375.302" y1="125.283" y2="168.177" gradientUnits="userSpaceOnUse"><stop offset="0" style="stop-color:#fff"/><stop offset=".048" style="stop-color:#fef6ed"/><stop offset=".257" style="stop-color:#fbd0a5"/><stop offset=".444" style="stop-color:#f9b26b"/><stop offset=".603" style="stop-color:#f79d42"/><stop offset=".728" style="stop-color:#f69028"/><stop offset=".803" style="stop-color:#f68b1f"/></linearGradient><path fill="url(#SVGID_5_)" d="M421.2,176.3c0-26.8-21.7-48.5-48.5-48.5c-26.8,0-48.5,21.7-48.5,48.5c0,3.8,0.4,7.4,1.3,11h94.5 C420.7,183.8,421.2,180.1,421.2,176.3z"/></g><g><linearGradient id="SVGID_6_" x1="220.652" x2="220.652" y1="144.88" y2="191.754" gradientUnits="userSpaceOnUse"><stop offset="0" style="stop-color:#f68b1f"/><stop offset=".531" style="stop-color:#cb672f"/><stop offset="1" style="stop-color:#a1453f"/></linearGradient><polygon fill="url(#SVGID_6_)" points="423.2 189 421.4 185.4 419.4 182 416.6 177.6 413.8 174 410.4 169.8 407 166.2 403 162.4 399.2 159.2 395 156.2 390.8 153.6 386.2 151 382.2 149 378.2 147.4 374.6 146.4 371 145.6 367.4 145 363.2 144.6 88.4 145.2 84 145.4 79.6 145.6 74.8 146.2 70.8 147 65.6 148.2 62 149.4 58.2 150.8 54.4 152.2 49.6 154.6 46 156.4 41.4 159.4 37.2 162.6 32.8 166.2 29 170 26 173.6 22.8 177.8 20.4 182 18.6 185.6 17.6 189 16.9 191.9 424.4 191.9"/></g><radialGradient id="SVGID_7_" cx="276.776" cy="139.446" r="108.216" fx="343.904" fy="119.827" gradientUnits="userSpaceOnUse"><stop offset="0" style="stop-color:#fff"/><stop offset=".133" style="stop-color:#fce800"/><stop offset=".859" style="stop-color:#ec8f27"/></radialGradient><polygon fill="url(#SVGID_7_)" fill-rule="evenodd" points="344 120 380.8 168.2 379.4 169.2 336.4 130.6 171.4 160.6 171.2 159 324.6 123.8 240.2 95 241.2 93.8" clip-rule="evenodd"/></g></svg>