<svg xmlns="http://www.w3.org/2000/svg" id="Layer_1" viewBox="0 0 80 80"><style>.st4{fill:url(#SVGID_5_)}</style><linearGradient id="SVGID_1_" x1="8.027" x2="18.522" y1="707.337" y2="696.842" gradientTransform="translate(0 -688)" gradientUnits="userSpaceOnUse"><stop offset="0" stop-color="#F7945D"/><stop offset="1" stop-color="#FFDB71"/></linearGradient><path fill="none" stroke="url(#SVGID_1_)" stroke-linecap="round" stroke-linejoin="round" stroke-miterlimit="10" stroke-width="2.5" d="M19.82 11.908h-8.727v8.727"/><linearGradient id="SVGID_2_" x1="65.845" x2="71.976" y1="705.156" y2="699.024" gradientTransform="translate(0 -688)" gradientUnits="userSpaceOnUse"><stop offset="0" stop-color="#F7945D"/><stop offset="1" stop-color="#FFDB71"/></linearGradient><path fill="none" stroke="url(#SVGID_2_)" stroke-linecap="round" stroke-linejoin="round" stroke-miterlimit="10" stroke-width="2.5" d="M71.093 20.635v-8.727h-8.727"/><linearGradient id="SVGID_3_" x1="10.209" x2="16.34" y1="760.792" y2="754.661" gradientTransform="translate(0 -688)" gradientUnits="userSpaceOnUse"><stop offset="0" stop-color="#F7945D"/><stop offset="1" stop-color="#FFDB71"/></linearGradient><path fill="none" stroke="url(#SVGID_3_)" stroke-linecap="round" stroke-linejoin="round" stroke-miterlimit="10" stroke-width="2.5" d="M11.093 63.18v8.728h8.727"/><linearGradient id="SVGID_4_" x1="63.663" x2="74.158" y1="762.974" y2="752.479" gradientTransform="translate(0 -688)" gradientUnits="userSpaceOnUse"><stop offset="0" stop-color="#F7945D"/><stop offset="1" stop-color="#FFDB71"/></linearGradient><path fill="none" stroke="url(#SVGID_4_)" stroke-linecap="round" stroke-linejoin="round" stroke-miterlimit="10" stroke-width="2.5" d="M62.365 71.908h8.727V63.18"/><linearGradient id="SVGID_5_" x1="30.415" x2="45.4" y1="752.815" y2="711.643" gradientTransform="translate(0 -688)" gradientUnits="userSpaceOnUse"><stop offset="0" stop-color="#F7945D"/><stop offset=".183" stop-color="#F7985E"/><stop offset=".394" stop-color="#F9A161"/><stop offset=".618" stop-color="#FAB164"/><stop offset=".851" stop-color="#FFCA6D"/><stop offset="1" stop-color="#FFDB71"/></linearGradient><path d="M49.586 25.39s-6.468-.47-8.416-3.04c-2.026 2.57-8.416 3.04-8.416 3.04s-5.688-.157-8.494-2.105v20.883c0 4.208 1.714 8.26 4.83 10.987 2.572 2.26 6.39 4.675 12.157 6.234 5.766-1.637 9.584-3.975 12.156-6.235 3.117-2.805 4.83-6.857 4.83-10.987V23.285c-2.96 1.948-8.647 2.104-8.647 2.104z" class="st4"/></svg>